<svg width="16" height="16" viewBox="0 0 16 16" fill="none" xmlns="http://www.w3.org/2000/svg">
<rect width="16" height="16" fill="#121617"/>
<path d="M6.68905 9.68709C6.68905 9.87719 6.6777 10.0114 6.65499 10.1456C6.63229 10.2909 6.58689 10.4028 6.53013 10.481C6.46203 10.5705 6.37122 10.6264 6.24636 10.6823C6.1215 10.7271 5.93989 10.7494 5.71287 10.7494C5.50855 10.7494 5.33829 10.7382 5.21343 10.7159C5.08857 10.6935 5.00911 10.6488 4.96371 10.5929C4.9183 10.5369 4.8729 10.4363 4.8502 10.3021C4.83885 10.2015 4.8275 10.0673 4.8275 9.92192V4.73327H5.36099L4.18049 3L3 4.73327H3.53349V9.92192V10.0561C3.53349 10.3357 3.55619 10.5817 3.59025 10.7941C3.63565 11.0178 3.71511 11.2079 3.82862 11.3644C3.95348 11.521 4.12374 11.644 4.33941 11.7223C4.56643 11.8006 4.8502 11.8341 5.20208 11.8341C5.4745 11.8341 5.71287 11.8117 5.91718 11.767C6.1215 11.7223 6.29176 11.644 6.43933 11.5434C6.55284 11.4651 6.64364 11.3644 6.73445 11.2526L6.7685 11.767H7.9717V7.55124H6.68905V9.68709Z" fill="#4EBD09"/>
<path d="M12.9326 8.46784C12.8872 8.27773 12.8191 8.11 12.7056 7.97581C12.5921 7.84162 12.4332 7.74098 12.2175 7.67388C12.0018 7.60679 11.7294 7.57324 11.3889 7.57324H8.5625V13.4664H9.8565V11.8337H11.3775C11.7294 11.8337 12.0132 11.8002 12.2288 11.7219C12.4445 11.6436 12.6034 11.5318 12.7169 11.3976C12.8304 11.2523 12.9099 11.0957 12.9439 10.8944C12.978 10.7043 13.0007 9.36243 13.0007 9.13878C13.0007 8.88159 12.978 8.65794 12.9326 8.46784ZM11.684 10.4919C11.6726 10.5813 11.6272 10.6484 11.5818 10.6931C11.5251 10.7379 11.4456 10.7714 11.3321 10.7938C11.2186 10.8161 11.0597 10.8161 10.8554 10.8161H9.8565V8.57966H10.8667C11.0597 8.57966 11.2186 8.59084 11.3321 8.61321C11.4456 8.63557 11.5251 8.66912 11.5818 8.71385C11.6386 8.75858 11.6726 8.82567 11.684 8.91513C11.6953 9.00459 11.7067 9.11642 11.7067 9.25061C11.7067 9.37361 11.7067 10.4024 11.684 10.4919Z" fill="#FA2702"/>
</svg>
