<svg width="8" height="14" viewBox="0 0 8 14" fill="none" xmlns="http://www.w3.org/2000/svg">
<path fill-rule="evenodd" clip-rule="evenodd" d="M7.60959 0.393997C7.85957 0.646349 8 0.988566 8 1.34539C8 1.70222 7.85957 2.04444 7.60959 2.29679L3.21861 6.72811L7.60959 11.1594C7.85248 11.4132 7.98689 11.7532 7.98385 12.106C7.98081 12.4588 7.84058 12.7963 7.59335 13.0458C7.34612 13.2953 7.01168 13.4369 6.66206 13.4399C6.31244 13.443 5.97561 13.3074 5.72412 13.0622L0.39041 7.67951C0.140431 7.42715 0 7.08494 0 6.72811C0 6.37128 0.140431 6.02907 0.39041 5.77671L5.72412 0.393997C5.97418 0.141721 6.31328 0 6.66686 0C7.02043 0 7.35954 0.141721 7.60959 0.393997Z" fill="#121617"/>
</svg>
