<svg version="1.2" xmlns="http://www.w3.org/2000/svg" viewBox="0 0 8 14" width="8" height="14">
	<title>arrow-left-black-svg</title>
	<style>
		.s0 { fill: #121617 } 
	</style>
	<path id="Layer copy" fill-rule="evenodd" class="s0" d="m0.4 13c-0.3-0.2-0.4-0.5-0.4-0.9 0-0.4 0.1-0.7 0.4-1l4.4-4.4-4.4-4.4c-0.3-0.3-0.4-0.6-0.4-1 0-0.3 0.2-0.7 0.4-0.9 0.3-0.3 0.6-0.4 0.9-0.4 0.4 0 0.7 0.1 1 0.4l5.3 5.4c0.3 0.2 0.4 0.6 0.4 0.9 0 0.4-0.1 0.7-0.4 1l-5.3 5.3c-0.3 0.3-0.6 0.4-1 0.4-0.3 0-0.7-0.1-0.9-0.4z"/>
</svg>