<svg width="8" height="14" viewBox="0 0 8 14" fill="none" xmlns="http://www.w3.org/2000/svg">
<path fill-rule="evenodd" clip-rule="evenodd" d="M0.39041 13.046C0.140431 12.7936 0 12.4514 0 12.0946C0 11.7378 0.140431 11.3955 0.39041 11.1432L4.78139 6.71186L0.39041 2.28054C0.147515 2.02674 0.0131126 1.68682 0.0161507 1.33399C0.0191888 0.981154 0.159424 0.643641 0.406653 0.394141C0.653881 0.144641 0.988322 0.00311689 1.33794 5.087e-05C1.68756 -0.00301515 2.02439 0.132622 2.27588 0.377749L7.60959 5.76047C7.85957 6.01282 8 6.35504 8 6.71186C8 7.06869 7.85957 7.4109 7.60959 7.66326L2.27588 13.046C2.02582 13.2983 1.68672 13.44 1.33314 13.44C0.979566 13.44 0.640465 13.2983 0.39041 13.046Z" fill="white"/>
</svg>
