<svg version="1.2" xmlns="http://www.w3.org/2000/svg" viewBox="0 0 8 14" width="8" height="14">
	<title>arrow-white-right-svg</title>
	<style>
		.s0 { fill: #ffffff } 
	</style>
	<path id="Layer copy" fill-rule="evenodd" class="s0" d="m7.6 1c0.3 0.2 0.4 0.5 0.4 0.9 0 0.4-0.1 0.7-0.4 1l-4.4 4.4 4.4 4.4c0.3 0.3 0.4 0.6 0.4 1 0 0.3-0.2 0.7-0.4 0.9-0.3 0.3-0.6 0.4-0.9 0.4-0.4 0-0.7-0.1-1-0.4l-5.3-5.4c-0.3-0.2-0.4-0.6-0.4-0.9 0-0.4 0.1-0.7 0.4-1l5.3-5.3c0.3-0.3 0.6-0.4 1-0.4 0.3 0 0.7 0.1 0.9 0.4z"/>
</svg>