<svg width="20" height="20" viewBox="0 0 20 20" fill="none" xmlns="http://www.w3.org/2000/svg">
<g clip-path="url(#clip0_1630_6663)">
<path d="M19.9962 6.12826C19.9962 6.1261 19.9964 6.12393 19.9964 6.12177C19.9964 3.49235 17.8649 1.36084 15.2355 1.36084C12.6061 1.36084 10.4746 3.49231 10.4746 6.12177C10.4746 8.75123 12.6063 10.8827 15.2355 10.8827C15.7759 10.8827 16.2932 10.7885 16.7772 10.6225C15.7061 16.7673 10.9143 20.73 15.3562 17.4686C20.2817 13.852 20.0017 6.26703 19.9962 6.12826Z" fill="#07689F"/>
<path d="M4.76093 10.8827C5.30131 10.8827 5.81859 10.7885 6.30284 10.6225C5.23144 16.7672 0.439686 20.73 4.88162 17.4685C9.80706 13.852 9.52713 6.26703 9.52158 6.12826C9.52158 6.1261 9.52181 6.12393 9.52181 6.12177C9.52181 3.49235 7.39034 1.36084 4.76093 1.36084C2.13147 1.36084 0 3.49231 0 6.12177C0 8.75123 2.13171 10.8827 4.76093 10.8827Z" fill="#07689F"/>
</g>
<defs>
<clipPath id="clip0_1630_6663">
<rect width="20" height="20" fill="white"/>
</clipPath>
</defs>
</svg>
