<svg width="94" height="14" viewBox="0 0 94 14" fill="none" xmlns="http://www.w3.org/2000/svg">
<path d="M87 0L88.5716 4.83688H93.6574L89.5429 7.82624L91.1145 12.6631L87 9.67376L82.8855 12.6631L84.4571 7.82624L80.3426 4.83688H85.4284L87 0Z" fill="#F58309"/>
<path d="M47 0L48.5716 4.83688H53.6574L49.5429 7.82624L51.1145 12.6631L47 9.67376L42.8855 12.6631L44.4571 7.82624L40.3426 4.83688H45.4284L47 0Z" fill="#F58309"/>
<path d="M67 0L68.5716 4.83688H73.6574L69.5429 7.82624L71.1145 12.6631L67 9.67376L62.8855 12.6631L64.4571 7.82624L60.3426 4.83688H65.4284L67 0Z" fill="#F58309"/>
<path d="M27 0L28.5716 4.83688H33.6574L29.5429 7.82624L31.1145 12.6631L27 9.67376L22.8855 12.6631L24.4571 7.82624L20.3426 4.83688H25.4284L27 0Z" fill="#F58309"/>
<path d="M7 0L8.5716 4.83688H13.6574L9.5429 7.82624L11.1145 12.6631L7 9.67376L2.8855 12.6631L4.4571 7.82624L0.342604 4.83688H5.4284L7 0Z" fill="#F58309"/>
</svg>
