<svg width="42" height="44" viewBox="0 0 42 44" fill="none" xmlns="http://www.w3.org/2000/svg">
<path d="M15.4937 28.1111C15.4937 28.9102 15.4461 29.4743 15.3507 30.0384C15.2554 30.6496 15.0647 31.1196 14.8263 31.4487C14.5403 31.8248 14.1589 32.0598 13.6345 32.2949C13.1101 32.4829 12.3473 32.5769 11.3939 32.5769C10.5357 32.5769 9.82065 32.5299 9.29624 32.4359C8.77184 32.3419 8.43813 32.1538 8.24744 31.9188C8.05675 31.6837 7.86605 31.2607 7.77071 30.6966C7.72303 30.2735 7.67535 29.7094 7.67535 29.0983V7.28632H9.91599L4.95799 0L0 7.28632H2.24063V29.0983V29.6624C2.24063 30.8376 2.33598 31.8718 2.479 32.7649C2.66969 33.7051 3.0034 34.5043 3.48013 35.1624C4.00454 35.8205 4.71963 36.3376 5.62542 36.6666C6.57888 36.9957 7.7707 37.1367 9.24857 37.1367C10.3927 37.1367 11.3939 37.0427 12.252 36.8547C13.1101 36.6666 13.8252 36.3376 14.4449 35.9145C14.9217 35.5855 15.303 35.1624 15.6844 34.6923L15.8274 36.8547H20.8808V19.1325H15.4937V28.1111Z" fill="white"/>
<path d="M41.7135 22.9877C41.5228 22.1886 41.2367 21.4835 40.76 20.9194C40.2833 20.3553 39.6159 19.9322 38.7101 19.6501C37.8043 19.3681 36.6601 19.2271 35.2299 19.2271H23.3594V44.0005H28.7941V37.1373H35.1823C36.6601 37.1373 37.852 36.9963 38.7578 36.6672C39.6635 36.3382 40.331 35.8681 40.8077 35.304C41.2844 34.6929 41.6181 34.0347 41.7611 33.1886C41.9042 32.3894 41.9995 26.7484 41.9995 25.8082C41.9995 24.727 41.9042 23.7869 41.7135 22.9877ZM36.4694 31.4963C36.4218 31.8723 36.2311 32.1544 36.0404 32.3424C35.802 32.5305 35.4683 32.6715 34.9916 32.7655C34.5149 32.8595 33.8474 32.8595 32.9893 32.8595H28.7941V23.4578H33.037C33.8474 23.4578 34.5149 23.5048 34.9916 23.5988C35.4683 23.6929 35.802 23.8339 36.0404 24.0219C36.2788 24.21 36.4218 24.492 36.4694 24.8681C36.5171 25.2441 36.5648 25.7142 36.5648 26.2783C36.5648 26.7954 36.5648 31.1202 36.4694 31.4963Z" fill="white"/>
</svg>
